<?xml version="1.0" standalone="no"?>
<!DOCTYPE svg PUBLIC "-//W3C//DTD SVG 20010904//EN"
 "http://www.w3.org/TR/2001/REC-SVG-20010904/DTD/svg10.dtd">
<svg version="1.0" xmlns="http://www.w3.org/2000/svg"
 width="195.000000pt" height="112.000000pt" viewBox="0 0 195.000000 112.000000"
 preserveAspectRatio="xMidYMid meet">
<rect width="100%" height="100%" fill="#eee"/>

<g transform="translate(0.000000,112.000000) scale(0.100000,-0.100000)"
fill="#000000" stroke="none">
<path d="M430 926 c0 -129 6 -136 115 -136 109 0 115 7 115 136 l0 104 -115 0
-115 0 0 -104z m218 72 c-3 -9 -35 -14 -101 -16 -82 -2 -97 0 -97 13 0 12 17
15 101 15 76 0 100 -3 97 -12z m0 -94 c4 -83 -8 -94 -98 -94 -100 0 -100 0
-100 86 l0 75 98 -3 97 -3 3 -61z"/>
<path d="M870 926 c0 -129 6 -136 115 -136 109 0 115 7 115 136 l0 104 -115 0
-115 0 0 -104z m218 72 c-3 -9 -33 -13 -103 -13 -70 0 -100 4 -102 13 -4 9 21
12 102 12 81 0 106 -3 103 -12z m0 -94 c4 -84 -7 -94 -103 -94 -95 0 -105 9
-105 96 l0 65 103 -3 102 -3 3 -61z"/>
<path d="M1310 926 c0 -129 6 -136 115 -136 109 0 115 7 115 136 l0 104 -115
0 -115 0 0 -104z m210 69 c0 -13 -15 -15 -97 -13 -66 2 -98 7 -101 16 -3 9 21
12 97 12 84 0 101 -3 101 -15z m0 -93 c0 -40 -5 -73 -12 -80 -7 -7 -43 -12
-90 -12 -66 0 -79 3 -88 19 -11 22 -14 124 -3 134 3 4 48 7 100 7 l93 0 0 -68z"/>
<path d="M320 540 l0 -230 665 0 665 0 0 230 0 230 -665 0 -665 0 0 -230z
m1310 0 l0 -210 -650 0 -650 0 0 210 0 210 650 0 650 0 0 -210z"/>
<path d="M955 590 c-4 -6 -4 -22 -1 -35 3 -13 2 -27 -4 -30 -20 -13 10 -46 38
-43 26 3 27 6 27 58 0 52 -1 55 -27 58 -14 2 -29 -2 -33 -8z m45 -26 c0 -8 -7
-14 -15 -14 -15 0 -21 21 -9 33 10 9 24 -2 24 -19z m4 -43 c9 -15 -23 -36 -36
-23 -5 5 -7 15 -4 21 9 13 33 14 40 2z"/>
<path d="M60 540 l0 -120 98 0 c128 0 132 4 132 123 0 111 -7 117 -137 117
l-93 0 0 -120z m40 0 c0 -82 -3 -100 -15 -100 -12 0 -15 18 -15 100 0 82 3
100 15 100 12 0 15 -18 15 -100z m159 86 c8 -9 11 -45 9 -98 l-3 -83 -77 -3
-78 -3 0 101 0 100 69 0 c47 0 72 -4 80 -14z"/>
<path d="M1702 644 c-20 -14 -22 -24 -22 -103 0 -117 4 -121 133 -121 l97 0 0
120 0 120 -93 0 c-68 0 -99 -4 -115 -16z m148 -104 l0 -100 -70 0 c-83 0 -90
8 -90 104 0 85 11 96 96 96 l64 0 0 -100z m50 0 c0 -82 -3 -100 -15 -100 -12
0 -15 18 -15 100 0 82 3 100 15 100 12 0 15 -18 15 -100z"/>
<path d="M442 268 c-8 -8 -12 -48 -12 -115 l0 -103 115 0 115 0 0 103 c0 67
-4 107 -12 115 -16 16 -190 16 -206 0z m190 -15 c14 -12 18 -31 18 -80 l0 -63
-100 0 -100 0 0 68 c0 40 5 73 12 80 19 19 147 16 170 -5z m18 -173 c0 -6 -40
-10 -100 -10 -60 0 -100 4 -100 10 0 6 40 10 100 10 60 0 100 -4 100 -10z"/>
<path d="M882 268 c-8 -8 -12 -48 -12 -115 l0 -103 115 0 115 0 0 103 c0 67
-4 107 -12 115 -16 16 -190 16 -206 0z m192 -20 c10 -14 16 -44 16 -80 l0 -58
-105 0 -105 0 0 62 c0 86 13 98 106 98 64 0 75 -3 88 -22z m16 -168 c0 -6 -42
-10 -105 -10 -63 0 -105 4 -105 10 0 6 42 10 105 10 63 0 105 -4 105 -10z"/>
<path d="M1322 268 c-8 -8 -12 -48 -12 -115 l0 -103 115 0 115 0 0 96 c0 134
0 134 -113 134 -59 0 -97 -4 -105 -12z m186 -10 c7 -7 12 -40 12 -80 l0 -68
-100 0 -100 0 0 64 c0 86 10 96 104 96 43 0 77 -5 84 -12z m12 -178 c0 -6 -40
-10 -100 -10 -60 0 -100 4 -100 10 0 6 40 10 100 10 60 0 100 -4 100 -10z"/>
</g>
</svg>
