<?xml version="1.0" standalone="no"?>
<!DOCTYPE svg PUBLIC "-//W3C//DTD SVG 20010904//EN"
 "http://www.w3.org/TR/2001/REC-SVG-20010904/DTD/svg10.dtd">
<svg version="1.0" xmlns="http://www.w3.org/2000/svg"
 width="152.000000pt" height="102.000000pt" viewBox="0 0 152.000000 102.000000"
 preserveAspectRatio="xMidYMid meet">

<g transform="translate(0.000000,102.000000) scale(0.100000,-0.105000)"
fill="#000000" stroke="none">
<path d="M400 916 c0 -129 6 -136 115 -136 109 0 115 7 115 136 l0 104 -115 0
-115 0 0 -104z m218 72 c-3 -9 -35 -14 -101 -16 -82 -2 -97 0 -97 13 0 12 17
15 101 15 76 0 100 -3 97 -12z m0 -94 c4 -83 -8 -94 -98 -94 -100 0 -100 0
-100 86 l0 75 98 -3 97 -3 3 -61z"/>
<path d="M840 916 c0 -129 6 -136 115 -136 109 0 115 7 115 136 l0 104 -115 0
-115 0 0 -104z m218 72 c-3 -9 -33 -13 -103 -13 -70 0 -100 4 -102 13 -4 9 21
12 102 12 81 0 106 -3 103 -12z m0 -94 c4 -84 -7 -94 -103 -94 -95 0 -105 9
-105 96 l0 65 103 -3 102 -3 3 -61z"/>
<path d="M290 530 l0 -230 445 0 445 0 0 230 0 230 -445 0 -445 0 0 -230z
m870 0 l0 -210 -430 0 -430 0 0 210 0 210 430 0 430 0 0 -210z"/>
<path d="M715 574 c-11 -11 -15 -30 -13 -58 3 -38 5 -41 33 -41 28 0 30 3 30
35 0 30 -4 36 -24 38 l-25 4 25 19 c19 14 20 19 7 19 -9 0 -24 -7 -33 -16z
m38 -58 c3 -8 0 -20 -8 -26 -11 -9 -16 -7 -24 8 -6 11 -7 22 -4 26 11 11 31 6
36 -8z"/>
<path d="M30 530 l0 -120 98 0 c128 0 132 4 132 123 0 111 -7 117 -137 117
l-93 0 0 -120z m40 0 c0 -82 -3 -100 -15 -100 -12 0 -15 18 -15 100 0 82 3
100 15 100 12 0 15 -18 15 -100z m164 78 c18 -25 21 -113 6 -152 -9 -25 -14
-26 -80 -26 l-70 0 0 100 0 100 64 0 c56 0 67 -3 80 -22z"/>
<path d="M1233 635 c-21 -15 -23 -24 -23 -104 0 -119 5 -123 136 -119 l99 3 0
115 0 115 -95 3 c-74 2 -100 -1 -117 -13z m147 -105 l0 -101 -72 3 -73 3 -3
83 c-2 53 1 89 9 98 8 9 33 14 75 14 l64 0 0 -100z m50 0 c0 -82 -3 -100 -15
-100 -12 0 -15 18 -15 100 0 82 3 100 15 100 12 0 15 -18 15 -100z"/>
<path d="M412 258 c-8 -8 -12 -48 -12 -115 l0 -103 115 0 115 0 0 103 c0 67
-4 107 -12 115 -16 16 -190 16 -206 0z m190 -15 c14 -12 18 -31 18 -80 l0 -63
-100 0 -100 0 0 68 c0 40 5 73 12 80 19 19 147 16 170 -5z m18 -173 c0 -6 -40
-10 -100 -10 -60 0 -100 4 -100 10 0 6 40 10 100 10 60 0 100 -4 100 -10z"/>
<path d="M852 258 c-8 -8 -12 -48 -12 -115 l0 -103 115 0 115 0 0 103 c0 67
-4 107 -12 115 -16 16 -190 16 -206 0z m192 -20 c10 -14 16 -44 16 -80 l0 -58
-105 0 -105 0 0 62 c0 86 13 98 106 98 64 0 75 -3 88 -22z m16 -168 c0 -6 -42
-10 -105 -10 -63 0 -105 4 -105 10 0 6 42 10 105 10 63 0 105 -4 105 -10z"/>
</g>
</svg>
