<?xml version="1.0" standalone="no"?>
<!DOCTYPE svg PUBLIC "-//W3C//DTD SVG 20010904//EN"
 "http://www.w3.org/TR/2001/REC-SVG-20010904/DTD/svg10.dtd">
<svg version="1.0" xmlns="http://www.w3.org/2000/svg"
 width="236.000000pt" height="107.000000pt" viewBox="0 0 236.000000 107.000000"
 preserveAspectRatio="xMidYMid meet">

<g transform="translate(0.000000,107.000000) scale(0.100000,-0.100000)"
fill="#000000" stroke="none">
<path d="M420 906 c0 -129 6 -136 115 -136 109 0 115 7 115 136 l0 104 -115 0
-115 0 0 -104z m217 72 c-2 -9 -32 -13 -102 -13 -70 0 -100 4 -102 13 -4 9 21
12 102 12 81 0 106 -3 102 -12z m1 -94 c4 -85 -7 -94 -108 -94 -68 0 -81 3
-90 19 -11 22 -14 124 -3 135 4 4 50 5 103 4 l95 -3 3 -61z"/>
<path d="M857 1003 c-4 -3 -7 -46 -7 -95 0 -81 2 -91 25 -113 21 -22 33 -25
97 -25 112 0 118 7 118 136 l0 104 -113 0 c-63 0 -117 -3 -120 -7z m213 -28
c0 -13 -15 -15 -97 -13 -66 2 -98 7 -101 16 -3 9 21 12 97 12 84 0 101 -3 101
-15z m0 -93 c0 -40 -5 -73 -12 -80 -16 -16 -160 -16 -176 0 -7 7 -12 40 -12
80 l0 68 100 0 100 0 0 -68z"/>
<path d="M1297 1003 c-12 -11 -8 -173 4 -196 18 -33 28 -37 112 -37 109 0 117
9 117 140 l0 100 -113 0 c-63 0 -117 -3 -120 -7z m213 -28 c0 -13 -15 -15 -97
-13 -66 2 -98 7 -101 16 -3 9 21 12 97 12 84 0 101 -3 101 -15z m0 -93 c0 -40
-5 -73 -12 -80 -16 -16 -160 -16 -176 0 -7 7 -12 40 -12 80 l0 68 100 0 100 0
0 -68z"/>
<path d="M1730 912 c0 -131 4 -136 113 -140 76 -4 87 -2 106 17 19 19 21 33
21 121 l0 100 -120 0 -120 0 0 -98z m220 63 c0 -12 -18 -15 -100 -15 -82 0
-100 3 -100 15 0 12 18 15 100 15 82 0 100 -3 100 -15z m0 -93 c0 -40 -5 -73
-12 -80 -16 -16 -160 -16 -176 0 -7 7 -12 40 -12 80 l0 68 100 0 100 0 0 -68z"/>
<path d="M310 520 l0 -230 885 0 885 0 -2 228 -3 227 -882 3 -883 2 0 -230z
m1750 0 l0 -210 -870 0 -870 0 0 210 0 210 870 0 870 0 0 -210z"/>
<path d="M1128 573 c-22 -5 -24 -23 -3 -23 11 0 15 -12 15 -45 0 -25 5 -45 10
-45 6 0 10 27 10 60 0 33 -3 59 -7 59 -5 -1 -16 -3 -25 -6z"/>
<path d="M1204 556 c-3 -13 -4 -38 -2 -57 3 -30 6 -34 33 -34 24 0 31 5 38 30
12 44 -6 85 -38 85 -18 0 -26 -7 -31 -24z m56 -35 c0 -33 -14 -56 -29 -47 -12
8 -15 78 -4 89 12 12 33 -15 33 -42z"/>
<path d="M44 627 c-2 -7 -3 -60 -2 -118 l3 -104 99 -3 c130 -4 136 1 136 115
0 115 -8 123 -135 123 -70 0 -97 -4 -101 -13z m46 -107 c0 -82 -3 -100 -15
-100 -12 0 -15 18 -15 100 0 82 3 100 15 100 12 0 15 -18 15 -100z m158 88
c16 -16 16 -160 0 -176 -7 -7 -40 -12 -80 -12 l-68 0 0 93 c0 52 3 97 7 100
11 12 128 8 141 -5z"/>
<path d="M2124 615 c-25 -25 -26 -31 -22 -106 4 -105 10 -109 140 -109 l99 0
-3 118 -3 117 -93 3 c-88 3 -93 2 -118 -23z m156 -95 l0 -100 -68 0 c-40 0
-73 5 -80 12 -15 15 -16 142 -2 169 9 16 22 19 80 19 l70 0 0 -100z m40 0 c0
-60 -4 -100 -10 -100 -6 0 -10 40 -10 100 0 60 4 100 10 100 6 0 10 -40 10
-100z"/>
<path d="M432 248 c-8 -8 -12 -48 -12 -115 l0 -103 115 0 115 0 0 103 c0 67
-4 107 -12 115 -16 16 -190 16 -206 0z m192 -20 c10 -14 16 -44 16 -80 l0 -58
-105 0 -105 0 0 64 c0 87 10 96 105 96 65 0 76 -3 89 -22z m16 -168 c0 -6 -42
-10 -105 -10 -63 0 -105 4 -105 10 0 6 42 10 105 10 63 0 105 -4 105 -10z"/>
<path d="M865 236 c-12 -18 -15 -45 -13 -112 l3 -89 118 -3 117 -3 0 96 c0
135 0 135 -115 135 -89 0 -96 -2 -110 -24z m193 2 c7 -7 12 -40 12 -80 l0 -68
-100 0 -100 0 0 64 c0 86 10 96 104 96 43 0 77 -5 84 -12z m12 -178 c0 -6 -40
-10 -100 -10 -60 0 -100 4 -100 10 0 6 40 10 100 10 60 0 100 -4 100 -10z"/>
<path d="M1306 238 c-12 -16 -16 -47 -16 -115 l0 -93 120 0 120 0 0 99 c0 129
-2 131 -120 131 -80 0 -90 -2 -104 -22z m185 2 c16 -9 19 -22 19 -80 l0 -70
-100 0 -100 0 0 64 c0 85 11 96 96 96 36 0 74 -5 85 -10z m19 -180 c0 -6 -40
-10 -100 -10 -60 0 -100 4 -100 10 0 6 40 10 100 10 60 0 100 -4 100 -10z"/>
<path d="M1747 242 c-13 -15 -17 -39 -17 -115 l0 -97 120 0 120 0 0 98 c0 127
-4 132 -122 132 -70 0 -88 -3 -101 -18z m184 -2 c16 -9 19 -22 19 -80 l0 -70
-100 0 -100 0 0 70 c0 55 3 71 18 79 22 14 138 14 163 1z m19 -180 c0 -6 -40
-10 -100 -10 -60 0 -100 4 -100 10 0 6 40 10 100 10 60 0 100 -4 100 -10z"/>
</g>
</svg>
