<?xml version="1.0" standalone="no"?>
<!DOCTYPE svg PUBLIC "-//W3C//DTD SVG 20010904//EN"
 "http://www.w3.org/TR/2001/REC-SVG-20010904/DTD/svg10.dtd">
<svg version="1.0" xmlns="http://www.w3.org/2000/svg"
 width="102.000000pt" height="102.000000pt" viewBox="0 0 102.000000 102.000000"
 preserveAspectRatio="xMidYMid meet">

<g transform="translate(25.000000,102.000000) scale(0.100000,-0.100000)"
fill="#000000" stroke="none">
<path d="M140 886 c0 -129 6 -136 115 -136 109 0 115 7 115 136 l0 104 -115 0
-115 0 0 -104z m218 72 c-3 -9 -33 -13 -103 -13 -70 0 -100 4 -102 13 -4 9 21
12 102 12 81 0 106 -3 103 -12z m2 -89 c0 -93 -6 -99 -98 -99 -42 0 -83 4 -91
9 -15 10 -28 109 -18 136 5 12 26 15 107 15 l100 0 0 -61z"/>
<path d="M30 500 l0 -230 225 0 225 0 0 230 0 230 -225 0 -225 0 0 -230z m440
0 l0 -210 -210 0 -210 0 0 210 0 210 210 0 210 0 0 -210z"/>
<path d="M227 554 c-4 -4 -7 -14 -7 -23 0 -12 3 -12 12 -3 7 7 18 12 25 12 22
0 15 -35 -12 -60 -35 -33 -31 -40 18 -39 29 2 34 3 15 6 -33 5 -35 14 -8 38
30 27 23 69 -10 73 -14 2 -29 0 -33 -4z"/>
<path d="M150 221 c-5 -11 -10 -63 -10 -115 l0 -96 115 0 115 0 0 103 c0 67
-4 107 -12 115 -8 8 -46 12 -105 12 -81 0 -94 -2 -103 -19z m194 -7 c11 -11
16 -35 16 -80 l0 -64 -105 0 -105 0 0 58 c0 88 14 102 105 102 54 0 78 -4 89
-16z m16 -174 c0 -6 -42 -10 -105 -10 -63 0 -105 4 -105 10 0 6 42 10 105 10
63 0 105 -4 105 -10z"/>
</g>
</svg>
